<svg xmlns="http://www.w3.org/2000/svg" width="84" height="64" viewBox="0 0 84 64">
    <defs>
        <style>
            .cls-1{opacity:.202}.cls-2,.cls-3,.cls-5{stroke:#000;stroke-miterlimit:10}.cls-3,.cls-5,.cls-6{fill:none}.cls-4{fill:#fff}.cls-5{stroke-linecap:round;stroke-width:.25px}
        </style>
    </defs>
    <g id="그룹_206" data-name="그룹 206" transform="translate(-138 -314)">
        <g id="그룹_205" class="cls-1" data-name="그룹 205" transform="rotate(90 305.5 -30.5)">
            <path id="빼기_1" d="M-3970.636 382h-53.729a2.639 2.639 0 0 1-2.636-2.636v-23.729a2.639 2.639 0 0 1 2.636-2.636h53.729a2.639 2.639 0 0 1 2.636 2.636v23.729a2.639 2.639 0 0 1-2.636 2.636zm-52.9-27a1.471 1.471 0 0 0-1.469 1.469v22.061a1.471 1.471 0 0 0 1.469 1.469h52.061a1.471 1.471 0 0 0 1.469-1.469v-22.061a1.471 1.471 0 0 0-1.469-1.469z" class="cls-2" data-name="빼기 1" transform="translate(4679 -272)"/>
            <rect id="사각형_182" width="55" height="25" class="cls-3" data-name="사각형 182" rx="1.47" transform="translate(654 83)"/>
        </g>
        <g id="그룹_204" data-name="그룹 204" transform="translate(-501 250)">
            <path id="사각형_190" d="M0 0h56v25H0z" class="cls-4" data-name="사각형 190" transform="translate(653 83)"/>
            <path id="빼기_1-2" d="M-3970.636 382h-53.729a2.639 2.639 0 0 1-2.636-2.636v-23.729a2.639 2.639 0 0 1 2.636-2.636h53.729a2.639 2.639 0 0 1 2.636 2.636v23.729a2.639 2.639 0 0 1-2.636 2.636zm-52.9-27a1.471 1.471 0 0 0-1.469 1.469v22.061a1.471 1.471 0 0 0 1.469 1.469h52.061a1.471 1.471 0 0 0 1.469-1.469v-22.061a1.471 1.471 0 0 0-1.469-1.469z" class="cls-2" data-name="빼기 1" transform="translate(4679 -272)"/>
            <rect id="사각형_182-2" width="55" height="25" class="cls-3" data-name="사각형 182" rx="1.47" transform="translate(654 83)"/>
            <circle id="타원_36" cx="3.5" cy="3.5" r="3.5" class="cls-3" data-name="타원 36" transform="translate(677.5 92.5)"/>
            <path id="선_62" d="M0 0h12" class="cls-5" data-name="선 62" transform="translate(675 96)"/>
        </g>
        <g id="구성_요소_45_1" data-name="구성 요소 45 – 1" transform="translate(198 354)">
            <path id="패스_70" d="M0 0h24v24H0z" class="cls-6" data-name="패스 70" transform="rotate(180 12 12)"/>
            <path id="패스_71" d="M10.586 4L8.757 2.172 10.172.757 14.414 5l-4.242 4.243-1.415-1.415L10.586 6H8a3 3 0 0 0-3 3v4H3V9a5 5 0 0 1 5-5z" data-name="패스 71" transform="rotate(180 10.5 9.5)"/>
        </g>
        <g id="구성_요소_45_2" data-name="구성 요소 45 – 2" transform="rotate(180 81 169)">
            <path id="패스_70-2" d="M0 0h24v24H0z" class="cls-6" data-name="패스 70" transform="rotate(180 12 12)"/>
            <path id="패스_71-2" d="M10.586 4L8.757 2.172 10.172.757 14.414 5l-4.242 4.243-1.415-1.415L10.586 6H8a3 3 0 0 0-3 3v4H3V9a5 5 0 0 1 5-5z" data-name="패스 71" transform="rotate(180 10.5 9.5)"/>
        </g>
    </g>
</svg>
